<svg preserveAspectRatio="none" width="201" height="200" viewBox="0 0 201 200" fill="none" xmlns="http://www.w3.org/2000/svg">
<g clip-path="url(#clip0_4_21)">
<path d="M84.0821 16.6667C38.2488 16.6667 0.748764 54.1667 0.748764 100C0.748764 145.833 38.2488 183.333 84.0821 183.333C129.915 183.333 167.415 145.833 167.415 100C167.415 54.1667 129.915 16.6667 84.0821 16.6667ZM84.0821 166.667C47.3321 166.667 17.4154 136.75 17.4154 100C17.4154 63.25 47.3321 33.3333 84.0821 33.3333C120.832 33.3333 150.749 63.25 150.749 100C150.749 136.75 120.832 166.667 84.0821 166.667ZM122.332 63.1667L67.4154 118.083L45.8321 96.5833L34.0821 108.333L67.4154 141.667L134.082 75L122.332 63.1667Z" fill="white"/>
</g>
<defs>
<clipPath id="clip0_4_21">
<rect width="200" height="200" fill="white" transform="translate(0.5)"/>
</clipPath>
</defs>
</svg>
